<svg xmlns="http://www.w3.org/2000/svg" xmlns:xlink="http://www.w3.org/1999/xlink" xmlns:serif="http://www.serif.com/" width="100%" height="100%" viewBox="0 0 1475 649" xml:space="preserve" style="fill-rule:evenodd;clip-rule:evenodd;stroke-linejoin:round;stroke-miterlimit:2;">    <g transform="matrix(4.16667,0,0,4.16667,-1490.37,-945.472)">        <g transform="matrix(1,0,0,1,373.269,243.642)">            <path d="M0,28.946L6.724,28.946C13.284,28.946 17.794,27.47 19.844,24.6C22.058,21.73 22.632,18.86 22.632,14.596C22.632,10.414 22.058,7.545 19.844,4.839C17.63,2.133 13.284,0.656 6.642,0.656L0,0.656L0,28.946ZM-15.581,43.05L-15.581,-14.104L7.626,-14.104C17.548,-14.104 25.092,-11.48 30.34,-6.15C35.67,-0.82 38.294,6.068 38.294,14.596C38.294,23.289 35.67,30.176 30.422,35.342C25.256,40.509 17.63,43.05 7.708,43.05L-15.581,43.05Z" style="fill:white;fill-rule:nonzero;"></path>        </g>        <g transform="matrix(1,0,0,1,445.912,271.03)">            <path d="M0,-10.086C0,-12.71 -3.28,-15.006 -7.216,-15.006C-11.48,-15.006 -15.006,-12.792 -15.252,-10.086L0,-10.086ZM-30.504,-5.248C-30.504,-11.727 -28.29,-16.893 -23.944,-20.746C-19.598,-24.683 -14.022,-26.65 -7.216,-26.65C-0.656,-26.65 4.674,-24.601 8.856,-20.5C13.038,-16.482 15.088,-11.481 15.088,-5.494C15.088,-3.937 15.006,-2.378 14.842,-0.902L-15.334,-0.902C-15.088,2.05 -11.48,3.935 -6.15,3.935C-2.624,3.935 0.328,2.87 2.706,0.738L11.316,8.938C6.232,14.022 0.164,16.564 -6.97,16.564C-14.022,16.564 -19.68,14.596 -24.026,10.742C-28.372,6.806 -30.504,1.64 -30.504,-4.838L-30.504,-5.248Z" style="fill:white;fill-rule:nonzero;"></path>        </g>        <g transform="matrix(1,0,0,1,465.263,287.677)">            <path d="M0,-58.139L15.17,-58.139L15.17,-17.959C15.17,-14.597 16.482,-13.202 19.68,-13.202C20.747,-13.202 21.73,-13.285 22.632,-13.449L22.632,-0.657C20.747,-0.246 18.368,0 15.499,0C5.166,0 0,-5.248 0,-15.826L0,-58.139Z" style="fill:white;fill-rule:nonzero;"></path>        </g>        <g transform="matrix(1,0,0,1,0,-86.917)">            <path d="M491.732,332.281L506.902,332.281L506.902,373.609L491.732,373.609L491.732,332.281ZM493.373,328.016C490.092,324.737 490.092,319.489 493.373,316.291C496.652,313.01 501.9,313.01 505.181,316.291C508.46,319.489 508.46,324.737 505.181,328.016C501.9,331.215 496.652,331.215 493.373,328.016" style="fill:white;fill-rule:nonzero;"></path>        </g>        <g transform="matrix(1,0,0,1,552.888,279.313)">            <path d="M0,-26.897L-9.676,-17.63C-12.054,-20.091 -14.76,-21.321 -17.958,-21.321C-22.55,-21.321 -26.24,-17.959 -26.24,-13.449C-26.24,-8.939 -22.55,-5.577 -17.958,-5.577C-14.76,-5.577 -12.054,-6.807 -9.676,-9.267L0,-0.001C-5.084,5.576 -11.07,8.364 -17.958,8.364C-24.436,8.364 -30.012,6.313 -34.522,2.131C-39.032,-2.05 -41.246,-7.216 -41.246,-13.449C-41.246,-19.681 -39.032,-24.847 -34.522,-29.029C-30.012,-33.211 -24.436,-35.261 -17.958,-35.261C-11.07,-35.261 -5.084,-32.473 0,-26.897" style="fill:white;fill-rule:nonzero;"></path>        </g>        <g transform="matrix(1,0,0,1,0,-86.917)">            <path d="M556.478,332.281L571.648,332.281L571.648,373.609L556.478,373.609L556.478,332.281ZM558.118,328.016C554.838,324.737 554.838,319.489 558.118,316.291C561.398,313.01 566.646,313.01 569.926,316.291C573.206,319.489 573.206,324.737 569.926,328.016C566.646,331.215 561.398,331.215 558.118,328.016" style="fill:white;fill-rule:nonzero;"></path>        </g>        <g transform="matrix(1,0,0,1,605.612,260.369)">            <path d="M0,11.317C1.722,9.758 2.542,7.873 2.542,5.659C2.542,3.445 1.722,1.558 0,0.001C-1.722,-1.557 -3.69,-2.377 -5.986,-2.377C-10.66,-2.377 -14.514,1.313 -14.514,5.659C-14.514,10.005 -10.66,13.695 -5.986,13.695C-3.69,13.695 -1.722,12.875 0,11.317M10.578,-9.757C15.17,-5.494 17.466,-0.328 17.466,5.659C17.466,11.645 15.17,16.811 10.578,21.157C5.986,25.421 0.492,27.553 -5.986,27.553C-12.464,27.553 -18.04,25.421 -22.632,21.157C-27.142,16.811 -29.438,11.645 -29.438,5.659C-29.438,-0.328 -27.142,-5.494 -22.632,-9.757C-18.04,-14.104 -12.464,-16.236 -5.986,-16.236C0.492,-16.236 5.986,-14.104 10.578,-9.757" style="fill:white;fill-rule:nonzero;"></path>        </g>        <g transform="matrix(1,0,0,1,627.529,287.677)">            <path d="M0,-42.313L15.334,-42.313L15.334,-19.517C15.334,-15.827 17.302,-13.941 21.238,-13.941C25.174,-13.941 27.143,-15.827 27.143,-19.517L27.143,-42.313L42.477,-42.313L42.477,-18.123C42.477,-12.137 40.427,-7.626 36.327,-4.593C32.227,-1.559 27.225,0 21.238,0C15.252,0 10.25,-1.559 6.15,-4.593C2.05,-7.709 0,-12.219 0,-18.123L0,-42.313Z" style="fill:white;fill-rule:nonzero;"></path>        </g>        <g transform="matrix(1,0,0,1,680.566,260.533)">            <path d="M0,10.989C2.952,13.449 7.052,14.678 12.382,14.678C15.417,14.678 16.975,14.35 16.975,12.711C16.975,12.136 16.4,11.727 15.17,11.481C14.022,11.153 12.3,10.825 9.922,10.497C7.544,10.087 5.576,9.594 3.854,9.021C-1.968,6.97 -4.838,3.281 -4.838,-2.049C-4.838,-6.723 -3.116,-10.249 0.41,-12.709C3.936,-15.169 8.036,-16.4 12.875,-16.4C18.286,-16.4 23.371,-14.923 28.126,-11.971L22.223,-1.803C19.188,-3.526 15.908,-4.427 12.382,-4.427C9.922,-4.427 8.692,-3.854 8.692,-2.705C8.692,-1.967 9.021,-1.557 9.676,-1.312L14.351,-0.491C16.729,-0.081 19.271,0.493 21.812,1.394C27.88,3.445 30.915,7.135 30.915,12.547C30.915,21.731 24.519,27.389 11.645,27.389C4.018,27.389 -2.542,25.339 -8.036,21.157L0,10.989Z" style="fill:white;fill-rule:nonzero;"></path>        </g>        <g transform="matrix(1,0,0,1,556.108,303.478)">            <path d="M0,57.154L0,0L41.328,0L41.328,14.021L15.58,14.021L15.58,22.878L38.95,22.878L38.95,36.08L15.58,36.08L15.58,57.154L0,57.154Z" style="fill:white;fill-rule:nonzero;"></path>        </g>        <g transform="matrix(1,0,0,1,0,60.963)">            <path d="M601.954,258.341L617.124,258.341L617.124,299.669L601.954,299.669L601.954,258.341ZM603.594,254.076C600.313,250.797 600.313,245.549 603.594,242.351C606.874,239.07 612.122,239.07 615.402,242.351C618.682,245.549 618.682,250.797 615.402,254.076C612.122,257.274 606.874,257.274 603.594,254.076" style="fill:white;fill-rule:nonzero;"></path>        </g>        <g transform="matrix(1,0,0,1,628.595,334.473)">            <path d="M0,10.989C2.952,13.449 7.053,14.678 12.383,14.678C15.417,14.678 16.975,14.35 16.975,12.711C16.975,12.136 16.4,11.727 15.171,11.481C14.022,11.153 12.301,10.825 9.923,10.497C7.545,10.087 5.576,9.594 3.854,9.021C-1.968,6.97 -4.838,3.281 -4.838,-2.049C-4.838,-6.723 -3.115,-10.249 0.41,-12.709C3.937,-15.169 8.036,-16.4 12.875,-16.4C18.286,-16.4 23.371,-14.923 28.127,-11.971L22.223,-1.803C19.188,-3.526 15.908,-4.427 12.383,-4.427C9.923,-4.427 8.692,-3.854 8.692,-2.705C8.692,-1.967 9.021,-1.557 9.677,-1.312L14.351,-0.491C16.729,-0.081 19.271,0.493 21.812,1.394C27.881,3.445 30.915,7.135 30.915,12.547C30.915,21.731 24.519,27.389 11.645,27.389C4.019,27.389 -2.542,25.339 -8.035,21.157L0,10.989Z" style="fill:white;fill-rule:nonzero;"></path>        </g>        <g transform="matrix(1,0,0,1,664.257,303.478)">            <path d="M0,57.154L0,0L15.171,0L15.171,20.91C17.467,16.891 21.156,14.841 26.24,14.841C36.326,14.841 41.738,21.32 41.738,32.717L41.738,57.154L26.568,57.154L26.568,34.276C26.568,30.258 24.683,27.798 21.156,27.798C17.631,27.798 15.171,30.586 15.171,34.44L15.171,57.154L0,57.154Z" style="fill:white;fill-rule:nonzero;"></path>        </g>        <g>            <g transform="matrix(1,0,0,1,383.285,382.325)">                <path d="M0,-34.471C-3.559,-30.54 -7.28,-26.028 -10.973,-20.897C-16.304,-13.488 -20.439,-6.368 -23.649,0L-13.687,0C-8.439,0 -3.548,-2.593 -0.561,-6.907C0.392,-8.282 1.384,-9.674 2.418,-11.079C3.555,-12.625 4.691,-14.118 5.822,-15.56C9.273,-19.958 8.786,-26.249 4.664,-30.024C3.051,-31.502 1.498,-32.983 0,-34.471" style="fill:rgb(250,166,25);fill-rule:nonzero;"></path>            </g>            <g transform="matrix(1,0,0,1,497.17,377.94)">                <path d="M0,-74.071C-47.99,-87.311 -85.5,-55.922 -88.843,-53.028C-86.792,-50.929 -84.691,-48.931 -82.55,-47.038C-79.01,-43.91 -73.853,-43.525 -69.836,-46.011C-48.062,-59.493 -25.532,-63.681 -4.279,-58.016C6.838,-55.053 17.457,-48.884 26.916,-39.96C29.094,-37.905 29.19,-34.454 27.065,-32.345C14.2,-19.582 2.028,-15.05 -5.19,-13.18C-47.903,-2.114 -92.476,-38.82 -113.162,-67.959C-113.666,-68.67 -114.147,-69.363 -114.605,-70.035C-117.562,-74.381 -122.489,-76.961 -127.745,-76.961L-137.546,-76.961C-135.259,-72.325 -131.852,-66.004 -127.08,-58.925C-122.439,-52.039 -109.366,-34.36 -90.171,-20.394C-79.346,-12.517 -42.729,13.24 0,1.734C20.18,-3.7 34.598,-15.551 43.778,-25.466C49.393,-31.529 49.446,-40.885 43.834,-46.95C35.124,-56.365 20.733,-68.351 0,-74.071" style="fill:rgb(250,166,25);fill-rule:nonzero;"></path>            </g>        </g>    </g></svg>